{
date = "2013-11-15 14:07:43 +0000";
designer = "Shinji Pons";
designerURL = www.shinjipons.com;
familyName = "Modulo 04";
fontMaster = (
{
alignmentZones = (
"{128, 129}",
"{128, 129}",
"{128, 129}",
"{0, -2}",
"{0, -2}"
);
ascender = 128;
capHeight = 128;
customParameters = (
{
name = familyName;
value = "Modulo 04";
}
);
descender = 0;
guideLines = (
{
position = "{-18, 62}";
},
{
angle = 90;
position = "{74, 135}";
},
{
angle = 90;
position = "{70, 135}";
},
{
position = "{-18, 66}";
},
{
angle = 90;
position = "{12, 143}";
},
{
angle = 90;
position = "{132, 136}";
},
{
position = "{-19, 124}";
},
{
position = "{-20, 4}";
},
{
angle = 90;
position = "{136, -22}";
},
{
angle = 90;
position = "{8, -30}";
},
{
angle = 90;
position = "{72, 133}";
},
{
angle = 90;
position = "{134, 134}";
},
{
position = "{-11, 64}";
showMeasurement = 1;
},
{
position = "{0, 2}";
}
);
horizontalStems = (
4
);
id = "940E2F63-624A-4C3D-A909-721782B4CF41";
verticalStems = (
4
);
weightValue = 4;
widthValue = 128;
xHeight = 128;
}
);
glyphs = (
{
glyphname = A;
lastChange = "2013-12-02 19:57:39 +0000";
layers = (
{
guideLines = (
{
angle = 90;
position = "{50, -8}";
showMeasurement = 1;
}
);
layerId = "940E2F63-624A-4C3D-A909-721782B4CF41";
name = Regular;
paths = (
{
closed = 1;
nodes = (
"135.999 126.045 LINE SMOOTH",
"135.999 127.129 OFFCURVE",
"135.09 128 OFFCURVE",
"134 128 CURVE SMOOTH",
"10 128 LINE SMOOTH",
"8.895 128 OFFCURVE",
"8 127.105 OFFCURVE",
"8 126 CURVE SMOOTH",
"8 124.895 OFFCURVE",
"8.895 124 OFFCURVE",
"10 124 CURVE SMOOTH",
"132 124 LINE",
"132 4 LINE",
"12 4 LINE",
"12 62 LINE",
"72 62 LINE SMOOTH",
"73.105 62 OFFCURVE",
"74 62.895 OFFCURVE",
"74 64 CURVE SMOOTH",
"74 65.105 OFFCURVE",
"73.105 66 OFFCURVE",
"72 66 CURVE SMOOTH",
"10 66 LINE SMOOTH",
"8.895 66 OFFCURVE",
"8 65.105 OFFCURVE",
"8 64 CURVE SMOOTH",
"8 2 LINE SMOOTH",
"8 0.895 OFFCURVE",
"8.895 0 OFFCURVE",
"10 0 CURVE SMOOTH",
"134 0 LINE SMOOTH",
"135.105 0 OFFCURVE",
"136 0.895 OFFCURVE",
"135.999 2 CURVE"
);
}
);
width = 144;
}
);
unicode = 0041;
},
{
glyphname = B;
lastChange = "2013-12-02 20:00:04 +0000";
layers = (
{
layerId = "940E2F63-624A-4C3D-A909-721782B4CF41";
name = Regular;
paths = (
{
closed = 1;
nodes = (
"10 128 LINE SMOOTH",
"8.895 128 OFFCURVE",
"8 127.105 OFFCURVE",
"8 126 CURVE SMOOTH",
"8 2 LINE SMOOTH",
"8 0.895 OFFCURVE",
"8.895 0 OFFCURVE",
"10 0 CURVE SMOOTH",
"11.105 0 OFFCURVE",
"12 0.895 OFFCURVE",
"12 2 CURVE SMOOTH",
"12 124 LINE",
"132 124 LINE",
"132 66 LINE",
"72 66 LINE SMOOTH",
"70.895 66 OFFCURVE",
"70 65.105 OFFCURVE",
"70 64 CURVE SMOOTH",
"70 62.895 OFFCURVE",
"70.895 62 OFFCURVE",
"72 62 CURVE SMOOTH",
"132 62 LINE",
"132 4 LINE",
"72 4 LINE SMOOTH",
"70.895 4 OFFCURVE",
"70 3.105 OFFCURVE",
"70 2 CURVE SMOOTH",
"70 0.895 OFFCURVE",
"70.895 0 OFFCURVE",
"72 0 CURVE SMOOTH",
"134 0 LINE SMOOTH",
"135.105 0 OFFCURVE",
"136 0.895 OFFCURVE",
"136 2 CURVE SMOOTH",
"136 126 LINE SMOOTH",
"136 127.105 OFFCURVE",
"135.105 128 OFFCURVE",
"134 128 CURVE SMOOTH"
);
}
);
width = 144;
}
);
unicode = 0042;
},
{
glyphname = C;
lastChange = "2013-12-02 20:01:47 +0000";
layers = (
{
layerId = "940E2F63-624A-4C3D-A909-721782B4CF41";
name = Regular;
paths = (
{
closed = 1;
nodes = (
"12 4 LINE",
"12 124 LINE",
"134 124 LINE SMOOTH",
"135.105 124 OFFCURVE",
"136 124.895 OFFCURVE",
"136 126 CURVE SMOOTH",
"136 127.105 OFFCURVE",
"135.105 128 OFFCURVE",
"134 128 CURVE SMOOTH",
"10 128 LINE SMOOTH",
"8.895 128 OFFCURVE",
"8 127.105 OFFCURVE",
"8 126 CURVE SMOOTH",
"8 1.997 LINE SMOOTH",
"8 0.8933 OFFCURVE",
"8.896 0 OFFCURVE",
"10 0 CURVE SMOOTH",
"134 0 LINE SMOOTH",
"135.105 0 OFFCURVE",
"136 0.895 OFFCURVE",
"136 2 CURVE SMOOTH",
"136 3.105 OFFCURVE",
"135.105 4 OFFCURVE",
"134 4 CURVE SMOOTH"
);
}
);
width = 144;
}
);
unicode = 0043;
},
{
glyphname = D;
lastChange = "2013-12-02 20:03:07 +0000";
layers = (
{
layerId = "940E2F63-624A-4C3D-A909-721782B4CF41";
name = Regular;
paths = (
{
closed = 1;
nodes = (
"10 128 LINE SMOOTH",
"8.895 128 OFFCURVE",
"8 127.105 OFFCURVE",
"8 126 CURVE SMOOTH",
"8 124.895 OFFCURVE",
"8.895 124 OFFCURVE",
"10 124 CURVE SMOOTH",
"132 124 LINE",
"132 4 LINE",
"12 4 LINE",
"12 64 LINE SMOOTH",
"12 65.105 OFFCURVE",
"11.105 66 OFFCURVE",
"10 66 CURVE SMOOTH",
"8.895 66 OFFCURVE",
"8 65.105 OFFCURVE",
"8 64 CURVE SMOOTH",
"8 2 LINE SMOOTH",
"8 0.895 OFFCURVE",
"8.895 0 OFFCURVE",
"10 0 CURVE SMOOTH",
"134 0 LINE SMOOTH",
"135.105 0 OFFCURVE",
"136 0.895 OFFCURVE",
"136 2 CURVE SMOOTH",
"136 126 LINE SMOOTH",
"136 127.105 OFFCURVE",
"135.105 128 OFFCURVE",
"134 128 CURVE SMOOTH"
);
}
);
width = 144;
}
);
unicode = 0044;
},
{
glyphname = E;
lastChange = "2013-12-02 20:04:31 +0000";
layers = (
{
layerId = "940E2F63-624A-4C3D-A909-721782B4CF41";
name = Regular;
paths = (
{
closed = 1;
nodes = (
"134 62 LINE SMOOTH",
"135.105 62 OFFCURVE",
"136 62.895 OFFCURVE",
"136 64 CURVE SMOOTH",
"136 126 LINE SMOOTH",
"136 127.105 OFFCURVE",
"135.105 128 OFFCURVE",
"134 128 CURVE SMOOTH",
"72 128 LINE SMOOTH",
"70.895 128 OFFCURVE",
"70 127.105 OFFCURVE",
"70 126 CURVE SMOOTH",
"70 124.895 OFFCURVE",
"70.895 124 OFFCURVE",
"72 124 CURVE SMOOTH",
"132 124 LINE",
"132 66 LINE",
"12 66 LINE",
"12 126 LINE SMOOTH",
"12 127.105 OFFCURVE",
"11.105 128 OFFCURVE",
"10 128 CURVE SMOOTH",
"8.895 128 OFFCURVE",
"8 127.105 OFFCURVE",
"8 126 CURVE SMOOTH",
"8 2 LINE SMOOTH",
"8 0.895 OFFCURVE",
"8.895 0 OFFCURVE",
"10 0 CURVE SMOOTH",
"134 0 LINE SMOOTH",
"135.105 0 OFFCURVE",
"136 0.895 OFFCURVE",
"136 2 CURVE SMOOTH",
"136 3.105 OFFCURVE",
"135.105 4 OFFCURVE",
"134 4 CURVE SMOOTH",
"12 4 LINE",
"12 62 LINE"
);
}
);
width = 144;
}
);
unicode = 0045;
},
{
glyphname = F;
lastChange = "2013-12-02 20:05:27 +0000";
layers = (
{
layerId = "940E2F63-624A-4C3D-A909-721782B4CF41";
name = Regular;
paths = (
{
closed = 1;
nodes = (
"12 66 LINE",
"12 124 LINE",
"134 124 LINE SMOOTH",
"135.105 124 OFFCURVE",
"136 124.895 OFFCURVE",
"136 126 CURVE SMOOTH",
"136 127.105 OFFCURVE",
"135.105 128 OFFCURVE",
"134 128 CURVE SMOOTH",
"10 128 LINE SMOOTH",
"8.895 128 OFFCURVE",
"8 127.105 OFFCURVE",
"8 126 CURVE SMOOTH",
"8 2 LINE SMOOTH",
"8 0.895 OFFCURVE",
"8.895 0 OFFCURVE",
"10 0 CURVE SMOOTH",
"11.105 0 OFFCURVE",
"12 0.895 OFFCURVE",
"12 2 CURVE SMOOTH",
"12 62 LINE",
"134 62 LINE SMOOTH",
"135.105 62 OFFCURVE",
"136 62.895 OFFCURVE",
"136 64 CURVE SMOOTH",
"136 65.105 OFFCURVE",
"135.105 66 OFFCURVE",
"134 66 CURVE SMOOTH"
);
}
);
width = 144;
}
);
unicode = 0046;
},
{
glyphname = H;
lastChange = "2013-12-02 20:06:08 +0000";
layers = (
{
layerId = "940E2F63-624A-4C3D-A909-721782B4CF41";
name = Regular;
paths = (
{
closed = 1;
nodes = (
"132 66 LINE",
"12 66 LINE",
"12 126 LINE SMOOTH",
"12 127.105 OFFCURVE",
"11.105 128 OFFCURVE",
"10 128 CURVE SMOOTH",
"8.895 128 OFFCURVE",
"8 127.105 OFFCURVE",
"8 126 CURVE SMOOTH",
"8 2 LINE SMOOTH",
"8 0.895 OFFCURVE",
"8.895 0 OFFCURVE",
"10 0 CURVE SMOOTH",
"11.105 0 OFFCURVE",
"12 0.895 OFFCURVE",
"12 2 CURVE SMOOTH",
"12 62 LINE",
"132 62 LINE",
"132 2 LINE SMOOTH",
"132 0.895 OFFCURVE",
"132.895 0 OFFCURVE",
"134 0 CURVE SMOOTH",
"135.105 0 OFFCURVE",
"136 0.895 OFFCURVE",
"136 2 CURVE SMOOTH",
"136 126 LINE SMOOTH",
"136 127.105 OFFCURVE",
"135.105 128 OFFCURVE",
"134 128 CURVE SMOOTH",
"132.895 128 OFFCURVE",
"132 127.105 OFFCURVE",
"132 126 CURVE SMOOTH"
);
}
);
width = 144;
}
);
unicode = 0048;
},
{
glyphname = J;
lastChange = "2013-12-02 20:07:02 +0000";
layers = (
{
layerId = "940E2F63-624A-4C3D-A909-721782B4CF41";
name = Regular;
paths = (
{
closed = 1;
nodes = (
"72 128 LINE SMOOTH",
"70.895 128 OFFCURVE",
"70 127.105 OFFCURVE",
"70 126 CURVE SMOOTH",
"70 124.895 OFFCURVE",
"70.895 124 OFFCURVE",
"72 124 CURVE SMOOTH",
"132 124 LINE",
"132 4 LINE",
"10 4 LINE SMOOTH",
"8.895 4 OFFCURVE",
"8 3.105 OFFCURVE",
"8 2 CURVE SMOOTH",
"8 0.895 OFFCURVE",
"8.895 0 OFFCURVE",
"10 0 CURVE SMOOTH",
"134 0 LINE SMOOTH",
"135.105 0 OFFCURVE",
"136 0.895 OFFCURVE",
"136 2 CURVE SMOOTH",
"136 126 LINE SMOOTH",
"136 127.105 OFFCURVE",
"135.105 128 OFFCURVE",
"134 128 CURVE SMOOTH"
);
}
);
width = 144;
}
);
unicode = 004A;
},
{
glyphname = K;
lastChange = "2013-12-02 20:08:21 +0000";
layers = (
{
layerId = "940E2F63-624A-4C3D-A909-721782B4CF41";
name = Regular;
paths = (
{
closed = 1;
nodes = (
"74 66 LINE",
"74 124 LINE",
"134 124 LINE SMOOTH",
"135.105 124 OFFCURVE",
"136 124.895 OFFCURVE",
"136 126 CURVE SMOOTH",
"136 127.105 OFFCURVE",
"135.105 128 OFFCURVE",
"134 128 CURVE SMOOTH",
"72 128 LINE SMOOTH",
"70.895 128 OFFCURVE",
"70 127.105 OFFCURVE",
"70 126 CURVE SMOOTH",
"70 66 LINE",
"12 66 LINE",
"12 126 LINE SMOOTH",
"12 127.105 OFFCURVE",
"11.105 128 OFFCURVE",
"10 128 CURVE SMOOTH",
"8.895 128 OFFCURVE",
"8 127.105 OFFCURVE",
"8 126 CURVE SMOOTH",
"8 2 LINE SMOOTH",
"8 0.895 OFFCURVE",
"8.895 0 OFFCURVE",
"10 0 CURVE SMOOTH",
"11.105 0 OFFCURVE",
"12 0.895 OFFCURVE",
"12 2 CURVE SMOOTH",
"12 62 LINE",
"132 62 LINE",
"132 2 LINE SMOOTH",
"132 0.895 OFFCURVE",
"132.895 0 OFFCURVE",
"134 0 CURVE SMOOTH",
"135.105 0 OFFCURVE",
"136 0.895 OFFCURVE",
"136 2 CURVE SMOOTH",
"136 64 LINE SMOOTH",
"136 65.105 OFFCURVE",
"135.105 66 OFFCURVE",
"134 66 CURVE SMOOTH"
);
}
);
width = 144;
}
);
unicode = 004B;
},
{
glyphname = L;
lastChange = "2013-12-02 20:08:41 +0000";
layers = (
{
layerId = "940E2F63-624A-4C3D-A909-721782B4CF41";
name = Regular;
paths = (
{
closed = 1;
nodes = (
"12 4 LINE",
"12 126 LINE SMOOTH",
"12 127.105 OFFCURVE",
"11.105 128 OFFCURVE",
"10 128 CURVE SMOOTH",
"8.895 128 OFFCURVE",
"8 127.105 OFFCURVE",
"8 126 CURVE SMOOTH",
"8 0 LINE",
"134 0 LINE SMOOTH",
"135.105 0 OFFCURVE",
"136 0.895 OFFCURVE",
"136 2 CURVE SMOOTH",
"136 3.105 OFFCURVE",
"135.105 4 OFFCURVE",
"134 4 CURVE SMOOTH"
);
}
);
width = 144;
}
);
unicode = 004C;
},
{
glyphname = M;
lastChange = "2013-12-02 20:14:03 +0000";
layers = (
{
layerId = "940E2F63-624A-4C3D-A909-721782B4CF41";
name = Regular;
paths = (
{
closed = 1;
nodes = (
"10 128 LINE SMOOTH",
"8.895 128 OFFCURVE",
"8 127.105 OFFCURVE",
"8 126 CURVE SMOOTH",
"8 2 LINE SMOOTH",
"8 0.895 OFFCURVE",
"8.895 0 OFFCURVE",
"10 0 CURVE SMOOTH",
"11.105 0 OFFCURVE",
"12 0.895 OFFCURVE",
"12 2 CURVE SMOOTH",
"12 124 LINE",
"70 124 LINE",
"70 2 LINE SMOOTH",
"70 0.895 OFFCURVE",
"70.895 0 OFFCURVE",
"72 0 CURVE SMOOTH",
"73.105 0 OFFCURVE",
"74 0.895 OFFCURVE",
"74 2 CURVE SMOOTH",
"74 124 LINE",
"132 124 LINE",
"132 2 LINE SMOOTH",
"132 0.895 OFFCURVE",
"132.895 0 OFFCURVE",
"134 0 CURVE SMOOTH",
"135.105 0 OFFCURVE",
"136 0.895 OFFCURVE",
"136 2 CURVE SMOOTH",
"136 126 LINE SMOOTH",
"136 127.105 OFFCURVE",
"135.105 128 OFFCURVE",
"134 128 CURVE SMOOTH"
);
}
);
width = 144;
}
);
unicode = 004D;
},
{
glyphname = N;
lastChange = "2013-12-02 20:16:11 +0000";
layers = (
{
layerId = "940E2F63-624A-4C3D-A909-721782B4CF41";
name = Regular;
paths = (
{
closed = 1;
nodes = (
"132 4 LINE",
"74 4 LINE",
"74 126 LINE SMOOTH",
"74 127.105 OFFCURVE",
"73.105 128 OFFCURVE",
"72 128 CURVE SMOOTH",
"10 128 LINE SMOOTH",
"8.895 128 OFFCURVE",
"8 127.105 OFFCURVE",
"8 126 CURVE SMOOTH",
"8 2 LINE SMOOTH",
"8 0.895 OFFCURVE",
"8.895 0 OFFCURVE",
"10 0 CURVE SMOOTH",
"11.105 0 OFFCURVE",
"12 0.895 OFFCURVE",
"12 2 CURVE SMOOTH",
"12 124 LINE",
"70 124 LINE",
"70 2 LINE SMOOTH",
"70 0.895 OFFCURVE",
"70.895 0 OFFCURVE",
"72 0 CURVE SMOOTH",
"134 0 LINE SMOOTH",
"135.105 0 OFFCURVE",
"136 0.895 OFFCURVE",
"136 2 CURVE SMOOTH",
"136 126 LINE SMOOTH",
"136 127.105 OFFCURVE",
"135.105 128 OFFCURVE",
"134 128 CURVE SMOOTH",
"132.895 128 OFFCURVE",
"132 127.105 OFFCURVE",
"132 126 CURVE SMOOTH"
);
}
);
width = 144;
}
);
unicode = 004E;
},
{
glyphname = O;
lastChange = "2013-12-02 20:17:27 +0000";
layers = (
{
layerId = "940E2F63-624A-4C3D-A909-721782B4CF41";
name = Regular;
paths = (
{
closed = 1;
nodes = (
"10 128 LINE SMOOTH",
"8.895 128 OFFCURVE",
"8 127.105 OFFCURVE",
"8 126 CURVE SMOOTH",
"8 2 LINE SMOOTH",
"8 0.895 OFFCURVE",
"8.895 0 OFFCURVE",
"10 0 CURVE SMOOTH",
"134 0 LINE SMOOTH",
"135.105 0 OFFCURVE",
"136 0.895 OFFCURVE",
"136 2 CURVE SMOOTH",
"136 126 LINE SMOOTH",
"136 127.105 OFFCURVE",
"135.105 128 OFFCURVE",
"134 128 CURVE SMOOTH"
);
},
{
closed = 1;
nodes = (
"12 124 LINE",
"132 124 LINE",
"132 4 LINE",
"12 4 LINE"
);
}
);
width = 144;
}
);
unicode = 004F;
},
{
glyphname = P;
lastChange = "2013-12-02 20:18:47 +0000";
layers = (
{
layerId = "940E2F63-624A-4C3D-A909-721782B4CF41";
name = Regular;
paths = (
{
closed = 1;
nodes = (
"10 128 LINE SMOOTH",
"8.895 128 OFFCURVE",
"8 127.105 OFFCURVE",
"8 126 CURVE SMOOTH",
"8 2 LINE SMOOTH",
"8 0.895 OFFCURVE",
"8.895 0 OFFCURVE",
"10 0 CURVE SMOOTH",
"11.105 0 OFFCURVE",
"12 0.895 OFFCURVE",
"12 2 CURVE SMOOTH",
"12 124 LINE",
"132 124 LINE",
"132 66 LINE",
"72 66 LINE SMOOTH",
"70.895 66 OFFCURVE",
"70 65.105 OFFCURVE",
"70 64 CURVE SMOOTH",
"70 62.895 OFFCURVE",
"70.895 62 OFFCURVE",
"72 62 CURVE SMOOTH",
"134 62 LINE SMOOTH",
"135.105 62 OFFCURVE",
"136 62.895 OFFCURVE",
"136 64 CURVE SMOOTH",
"136 126 LINE SMOOTH",
"136 127.105 OFFCURVE",
"135.105 128 OFFCURVE",
"134 128 CURVE SMOOTH"
);
}
);
width = 144;
}
);
unicode = 0050;
},
{
glyphname = Q;
lastChange = "2013-12-02 20:19:13 +0000";
layers = (
{
layerId = "940E2F63-624A-4C3D-A909-721782B4CF41";
name = Regular;
paths = (
{
closed = 1;
nodes = (
"10 128 LINE SMOOTH",
"8.895 128 OFFCURVE",
"8 127.105 OFFCURVE",
"8 126 CURVE SMOOTH",
"8 2 LINE SMOOTH",
"8 0.895 OFFCURVE",
"8.895 0 OFFCURVE",
"10 0 CURVE SMOOTH",
"134 0 LINE SMOOTH",
"135.105 0 OFFCURVE",
"136 0.895 OFFCURVE",
"136 2 CURVE SMOOTH",
"136 126 LINE SMOOTH",
"136 127.105 OFFCURVE",
"135.105 128 OFFCURVE",
"134 128 CURVE SMOOTH"
);
},
{
closed = 1;
nodes = (
"132 4 LINE",
"74 4 LINE",
"74 64 LINE SMOOTH",
"74 65.105 OFFCURVE",
"73.105 66 OFFCURVE",
"72 66 CURVE SMOOTH",
"70.895 66 OFFCURVE",
"70 65.105 OFFCURVE",
"70 64 CURVE SMOOTH",
"70 4 LINE",
"12 4 LINE",
"12 124 LINE",
"132 124 LINE"
);
}
);
width = 144;
}
);
unicode = 0051;
},
{
glyphname = R;
lastChange = "2013-12-02 20:22:45 +0000";
layers = (
{
layerId = "940E2F63-624A-4C3D-A909-721782B4CF41";
name = Regular;
paths = (
{
closed = 1;
nodes = (
"134 62 LINE SMOOTH",
"135.105 62 OFFCURVE",
"136 62.895 OFFCURVE",
"136 64 CURVE SMOOTH",
"136 126 LINE SMOOTH",
"136 127.105 OFFCURVE",
"135.105 128 OFFCURVE",
"134 128 CURVE SMOOTH",
"10 128 LINE SMOOTH",
"8.8922 128 OFFCURVE",
"8 127.103 OFFCURVE",
"8 126 CURVE SMOOTH",
"8 2 LINE SMOOTH",
"8 0.895 OFFCURVE",
"8.895 0 OFFCURVE",
"10 0 CURVE SMOOTH",
"11.105 0 OFFCURVE",
"12 0.895 OFFCURVE",
"12 2 CURVE SMOOTH",
"12 124 LINE",
"132 124 LINE",
"132 66 LINE",
"72 66 LINE SMOOTH",
"70.895 66 OFFCURVE",
"70 65.105 OFFCURVE",
"70 64 CURVE SMOOTH",
"70 2 LINE SMOOTH",
"70 0.895 OFFCURVE",
"70.895 0 OFFCURVE",
"72 0 CURVE SMOOTH",
"134 0 LINE SMOOTH",
"135.105 0 OFFCURVE",
"136 0.895 OFFCURVE",
"136 2 CURVE SMOOTH",
"136 3.105 OFFCURVE",
"135.105 4 OFFCURVE",
"134 4 CURVE SMOOTH",
"74 4 LINE",
"74 62 LINE"
);
}
);
width = 144;
}
);
unicode = 0052;
},
{
glyphname = T;
lastChange = "2013-12-02 20:23:12 +0000";
layers = (
{
layerId = "940E2F63-624A-4C3D-A909-721782B4CF41";
name = Regular;
paths = (
{
closed = 1;
nodes = (
"10 128 LINE SMOOTH",
"8.895 128 OFFCURVE",
"8 127.105 OFFCURVE",
"8 126 CURVE SMOOTH",
"8 124.895 OFFCURVE",
"8.895 124 OFFCURVE",
"10 124 CURVE SMOOTH",
"70 124 LINE",
"70 2 LINE SMOOTH",
"70 0.895 OFFCURVE",
"70.895 0 OFFCURVE",
"72 0 CURVE SMOOTH",
"73.105 0 OFFCURVE",
"74 0.895 OFFCURVE",
"74 2 CURVE SMOOTH",
"74 124 LINE",
"134 124 LINE SMOOTH",
"135.105 124 OFFCURVE",
"136 124.895 OFFCURVE",
"136 126 CURVE SMOOTH",
"136 127.105 OFFCURVE",
"135.105 128 OFFCURVE",
"134 128 CURVE SMOOTH"
);
}
);
width = 144;
}
);
unicode = 0054;
},
{
glyphname = V;
lastChange = "2013-12-02 20:24:34 +0000";
layers = (
{
layerId = "940E2F63-624A-4C3D-A909-721782B4CF41";
name = Regular;
paths = (
{
closed = 1;
nodes = (
"132 66 LINE",
"72 66 LINE SMOOTH",
"70.895 66 OFFCURVE",
"70 65.105 OFFCURVE",
"70 64 CURVE SMOOTH",
"70 4 LINE",
"12 4 LINE",
"12 126 LINE SMOOTH",
"12 127.105 OFFCURVE",
"11.105 128 OFFCURVE",
"10 128 CURVE SMOOTH",
"8.895 128 OFFCURVE",
"8 127.105 OFFCURVE",
"8 126 CURVE SMOOTH",
"8 2 LINE SMOOTH",
"8 0.895 OFFCURVE",
"8.895 0 OFFCURVE",
"10 0 CURVE SMOOTH",
"72 0 LINE SMOOTH",
"73.105 0 OFFCURVE",
"74 0.895 OFFCURVE",
"74 2 CURVE SMOOTH",
"74 62 LINE",
"134 62 LINE SMOOTH",
"135.105 62 OFFCURVE",
"136 62.895 OFFCURVE",
"136 64 CURVE SMOOTH",
"136 126 LINE SMOOTH",
"136 127.105 OFFCURVE",
"135.105 128 OFFCURVE",
"134 128 CURVE SMOOTH",
"132.895 128 OFFCURVE",
"132 127.105 OFFCURVE",
"132 126 CURVE SMOOTH"
);
}
);
width = 144;
}
);
unicode = 0056;
},
{
glyphname = X;
lastChange = "2013-12-02 20:27:51 +0000";
layers = (
{
layerId = "940E2F63-624A-4C3D-A909-721782B4CF41";
name = Regular;
paths = (
{
closed = 1;
nodes = (
"132 4 LINE",
"74 4 LINE",
"74 124 LINE",
"134 124 LINE SMOOTH",
"135.105 124 OFFCURVE",
"136 124.895 OFFCURVE",
"136 126 CURVE SMOOTH",
"136 127.105 OFFCURVE",
"135.105 128 OFFCURVE",
"134 128 CURVE SMOOTH",
"10 128 LINE SMOOTH",
"8.895 128 OFFCURVE",
"8 127.105 OFFCURVE",
"8 126 CURVE SMOOTH",
"8 64 LINE SMOOTH",
"8 62.895 OFFCURVE",
"8.895 62 OFFCURVE",
"10 62 CURVE SMOOTH",
"11.105 62 OFFCURVE",
"12 62.895 OFFCURVE",
"12 64 CURVE SMOOTH",
"12 124 LINE",
"70 124 LINE",
"70 4 LINE",
"10 4 LINE SMOOTH",
"8.895 4 OFFCURVE",
"8 3.105 OFFCURVE",
"8 2 CURVE SMOOTH",
"8 0.895 OFFCURVE",
"8.895 0 OFFCURVE",
"10 0 CURVE SMOOTH",
"134 0 LINE SMOOTH",
"135.105 0 OFFCURVE",
"136 0.895 OFFCURVE",
"136 2 CURVE SMOOTH",
"136 64 LINE SMOOTH",
"136 65.105 OFFCURVE",
"135.105 66 OFFCURVE",
"134 66 CURVE SMOOTH",
"132.895 66 OFFCURVE",
"132 65.105 OFFCURVE",
"132 64 CURVE SMOOTH"
);
}
);
width = 144;
}
);
unicode = 0058;
},
{
glyphname = Y;
lastChange = "2013-12-02 20:28:46 +0000";
layers = (
{
layerId = "940E2F63-624A-4C3D-A909-721782B4CF41";
name = Regular;
paths = (
{
closed = 1;
nodes = (
"132 66 LINE",
"12 66 LINE",
"12 126 LINE SMOOTH",
"12 127.105 OFFCURVE",
"11.105 128 OFFCURVE",
"10 128 CURVE SMOOTH",
"8.895 128 OFFCURVE",
"8 127.105 OFFCURVE",
"8 126 CURVE SMOOTH",
"8 64 LINE SMOOTH",
"8 62.895 OFFCURVE",
"8.895 62 OFFCURVE",
"10 62 CURVE SMOOTH",
"132 62 LINE",
"132 4 LINE",
"10 4 LINE SMOOTH",
"8.895 4 OFFCURVE",
"8 3.105 OFFCURVE",
"8 2 CURVE SMOOTH",
"8 0.895 OFFCURVE",
"8.895 0 OFFCURVE",
"10 0 CURVE SMOOTH",
"134 0 LINE SMOOTH",
"135.105 0 OFFCURVE",
"136 0.895 OFFCURVE",
"136 2 CURVE SMOOTH",
"136 126 LINE SMOOTH",
"136 127.105 OFFCURVE",
"135.105 128 OFFCURVE",
"134 128 CURVE SMOOTH",
"132.895 128 OFFCURVE",
"132 127.105 OFFCURVE",
"132 126 CURVE SMOOTH"
);
}
);
width = 144;
}
);
unicode = 0059;
},
{
glyphname = zero;
lastChange = "2013-12-02 20:29:24 +0000";
layers = (
{
components = (
{
name = O;
transform = "{1, 0, 0, 1, 0, 0}";
}
);
layerId = "940E2F63-624A-4C3D-A909-721782B4CF41";
name = Regular;
paths = (
{
closed = 1;
nodes = (
"73.1046 62 OFFCURVE",
"74 62.8954 OFFCURVE",
"74 64 CURVE SMOOTH",
"74 65.1046 OFFCURVE",
"73.1046 66 OFFCURVE",
"72 66 CURVE SMOOTH",
"70.8954 66 OFFCURVE",
"70 65.1046 OFFCURVE",
"70 64 CURVE SMOOTH",
"70 62.8954 OFFCURVE",
"70.8954 62 OFFCURVE",
"72 62 CURVE SMOOTH"
);
}
);
width = 144;
}
);
unicode = 0030;
},
{
glyphname = one;
lastChange = "2013-12-02 20:31:37 +0000";
layers = (
{
layerId = "940E2F63-624A-4C3D-A909-721782B4CF41";
name = Regular;
paths = (
{
closed = 1;
nodes = (
"74 4 LINE",
"74 126 LINE SMOOTH",
"74 127.105 OFFCURVE",
"73.105 128 OFFCURVE",
"72 128 CURVE SMOOTH",
"10 127.988 LINE SMOOTH",
"8.8951 128 OFFCURVE",
"8 127.105 OFFCURVE",
"8 126 CURVE SMOOTH",
"8 124.895 OFFCURVE",
"8.8951 124 OFFCURVE",
"10 124 CURVE SMOOTH",
"70 124 LINE",
"70 4 LINE",
"10 4 LINE SMOOTH",
"8.8951 4 OFFCURVE",
"8 3.1051 OFFCURVE",
"8 2 CURVE SMOOTH",
"8 0.8951 OFFCURVE",
"8.8951 0 OFFCURVE",
"10 0 CURVE SMOOTH",
"134 0 LINE SMOOTH",
"135.105 0 OFFCURVE",
"136 0.8951 OFFCURVE",
"136 2 CURVE SMOOTH",
"136 3.1051 OFFCURVE",
"135.105 4 OFFCURVE",
"134 4 CURVE SMOOTH"
);
}
);
width = 144;
}
);
unicode = 0031;
},
{
glyphname = four;
lastChange = "2013-12-02 20:32:23 +0000";
layers = (
{
layerId = "940E2F63-624A-4C3D-A909-721782B4CF41";
name = Regular;
paths = (
{
closed = 1;
nodes = (
"132 66 LINE",
"12 66 LINE",
"12 126 LINE SMOOTH",
"12 127.105 OFFCURVE",
"11.105 128 OFFCURVE",
"10 128 CURVE SMOOTH",
"8.895 128 OFFCURVE",
"8 127.105 OFFCURVE",
"8 126 CURVE SMOOTH",
"8 64 LINE SMOOTH",
"8 62.895 OFFCURVE",
"8.895 62 OFFCURVE",
"10 62 CURVE SMOOTH",
"132 62 LINE",
"132 2 LINE SMOOTH",
"132 0.895 OFFCURVE",
"132.895 0 OFFCURVE",
"134 0 CURVE SMOOTH",
"135.105 0 OFFCURVE",
"136 0.895 OFFCURVE",
"136 2 CURVE SMOOTH",
"136 126 LINE SMOOTH",
"136 127.105 OFFCURVE",
"135.105 128 OFFCURVE",
"134 128 CURVE SMOOTH",
"132.895 128 OFFCURVE",
"132 127.105 OFFCURVE",
"132 126 CURVE SMOOTH"
);
}
);
width = 144;
}
);
unicode = 0034;
},
{
glyphname = seven;
lastChange = "2013-12-02 20:33:40 +0000";
layers = (
{
layerId = "940E2F63-624A-4C3D-A909-721782B4CF41";
name = Regular;
paths = (
{
closed = 1;
nodes = (
"10 128 LINE SMOOTH",
"8.895 128 OFFCURVE",
"8 127.105 OFFCURVE",
"8 126 CURVE SMOOTH",
"8 124.895 OFFCURVE",
"8.895 124 OFFCURVE",
"10 124 CURVE SMOOTH",
"132 124 LINE",
"132 66 LINE",
"72 66 LINE SMOOTH",
"70.895 66 OFFCURVE",
"70 65.105 OFFCURVE",
"70 64 CURVE SMOOTH",
"70 2 LINE SMOOTH",
"70 0.895 OFFCURVE",
"70.895 0 OFFCURVE",
"72 0 CURVE SMOOTH",
"73.105 0 OFFCURVE",
"74 0.895 OFFCURVE",
"74 2 CURVE SMOOTH",
"74 62 LINE",
"134 62 LINE SMOOTH",
"135.105 62 OFFCURVE",
"136 62.895 OFFCURVE",
"136 64 CURVE SMOOTH",
"136 126 LINE SMOOTH",
"136 127.105 OFFCURVE",
"135.105 128 OFFCURVE",
"134 128 CURVE SMOOTH"
);
}
);
width = 144;
}
);
unicode = 0037;
},
{
glyphname = eight;
lastChange = "2013-12-02 20:33:49 +0000";
layers = (
{
layerId = "940E2F63-624A-4C3D-A909-721782B4CF41";
name = Regular;
paths = (
{
closed = 1;
nodes = (
"132 66 LINE",
"12 66 LINE",
"12 124 LINE",
"132 124 LINE"
);
},
{
closed = 1;
nodes = (
"132 4 LINE",
"12 4 LINE",
"12 62 LINE",
"132 62 LINE"
);
},
{
closed = 1;
nodes = (
"10 128 LINE SMOOTH",
"8.895 128 OFFCURVE",
"8 127.105 OFFCURVE",
"8 126 CURVE SMOOTH",
"8 2 LINE SMOOTH",
"8 0.895 OFFCURVE",
"8.895 0 OFFCURVE",
"10 0 CURVE SMOOTH",
"134 0 LINE SMOOTH",
"135.105 0 OFFCURVE",
"136 0.895 OFFCURVE",
"136 2 CURVE SMOOTH",
"136 126 LINE SMOOTH",
"136 127.105 OFFCURVE",
"135.105 128 OFFCURVE",
"134 128 CURVE SMOOTH"
);
}
);
width = 144;
}
);
unicode = 0038;
},
{
glyphname = asterisk;
lastChange = "2013-12-02 20:34:13 +0000";
layers = (
{
components = (
{
name = plus;
transform = "{1, 0, 0, 1, 0, 0}";
}
);
layerId = "940E2F63-624A-4C3D-A909-721782B4CF41";
name = Regular;
paths = (
{
closed = 1;
nodes = (
"11.1046 124 OFFCURVE",
"12 124.895 OFFCURVE",
"12 126 CURVE SMOOTH",
"12 127.105 OFFCURVE",
"11.1046 128 OFFCURVE",
"10 128 CURVE SMOOTH",
"8.89542 128 OFFCURVE",
"8 127.105 OFFCURVE",
"8 126 CURVE SMOOTH",
"8 124.895 OFFCURVE",
"8.89542 124 OFFCURVE",
"10 124 CURVE SMOOTH"
);
},
{
closed = 1;
nodes = (
"135.105 124 OFFCURVE",
"136 124.895 OFFCURVE",
"136 126 CURVE SMOOTH",
"136 127.105 OFFCURVE",
"135.105 128 OFFCURVE",
"134 128 CURVE SMOOTH",
"132.895 128 OFFCURVE",
"132 127.105 OFFCURVE",
"132 126 CURVE SMOOTH",
"132 124.895 OFFCURVE",
"132.895 124 OFFCURVE",
"134 124 CURVE SMOOTH"
);
},
{
closed = 1;
nodes = (
"135.105 0 OFFCURVE",
"136 0.89542 OFFCURVE",
"136 2 CURVE SMOOTH",
"136 3.10458 OFFCURVE",
"135.105 4 OFFCURVE",
"134 4 CURVE SMOOTH",
"132.895 4 OFFCURVE",
"132 3.10458 OFFCURVE",
"132 2 CURVE SMOOTH",
"132 0.89542 OFFCURVE",
"132.895 0 OFFCURVE",
"134 0 CURVE SMOOTH"
);
},
{
closed = 1;
nodes = (
"11.1046 0 OFFCURVE",
"12 0.89542 OFFCURVE",
"12 2 CURVE SMOOTH",
"12 3.10458 OFFCURVE",
"11.1046 4 OFFCURVE",
"10 4 CURVE SMOOTH",
"8.89542 4 OFFCURVE",
"8 3.10458 OFFCURVE",
"8 2 CURVE SMOOTH",
"8 0.89542 OFFCURVE",
"8.89542 0 OFFCURVE",
"10 0 CURVE SMOOTH"
);
}
);
width = 144;
}
);
unicode = 002A;
},
{
glyphname = backslash;
lastChange = "2013-12-02 20:34:44 +0000";
layers = (
{
layerId = "940E2F63-624A-4C3D-A909-721782B4CF41";
name = Regular;
paths = (
{
closed = 1;
nodes = (
"8 2 LINE SMOOTH",
"8 0.895 OFFCURVE",
"8.895 0 OFFCURVE",
"10 0 CURVE SMOOTH",
"11.105 0 OFFCURVE",
"12 0.895 OFFCURVE",
"12 2 CURVE SMOOTH",
"12 126 LINE SMOOTH",
"12 127.105 OFFCURVE",
"11.105 128 OFFCURVE",
"10 128 CURVE SMOOTH",
"8.895 128 OFFCURVE",
"8 127.105 OFFCURVE",
"8 126 CURVE SMOOTH"
);
},
{
closed = 1;
nodes = (
"70 2 LINE SMOOTH",
"70 0.895 OFFCURVE",
"70.895 0 OFFCURVE",
"72 0 CURVE SMOOTH",
"73.105 0 OFFCURVE",
"74 0.895 OFFCURVE",
"74 2 CURVE SMOOTH",
"74 126 LINE SMOOTH",
"74 127.105 OFFCURVE",
"73.105 128 OFFCURVE",
"72 128 CURVE SMOOTH",
"70.895 128 OFFCURVE",
"70 127.105 OFFCURVE",
"70 126 CURVE SMOOTH"
);
},
{
closed = 1;
nodes = (
"132 2 LINE SMOOTH",
"132 0.895 OFFCURVE",
"132.895 0 OFFCURVE",
"134 0 CURVE SMOOTH",
"135.105 0 OFFCURVE",
"136 0.895 OFFCURVE",
"136 2 CURVE SMOOTH",
"136 126 LINE SMOOTH",
"136 127.105 OFFCURVE",
"135.105 128 OFFCURVE",
"134 128 CURVE SMOOTH",
"132.895 128 OFFCURVE",
"132 127.105 OFFCURVE",
"132 126 CURVE SMOOTH"
);
}
);
width = 144;
}
);
unicode = 005C;
},
{
glyphname = bullet;
lastChange = "2013-12-02 20:34:53 +0000";
layers = (
{
layerId = "940E2F63-624A-4C3D-A909-721782B4CF41";
name = Regular;
paths = (
{
closed = 1;
nodes = (
"10 128 LINE SMOOTH",
"8.895 128 OFFCURVE",
"8 127.105 OFFCURVE",
"8 126 CURVE SMOOTH",
"8 124.895 OFFCURVE",
"8.895 124 OFFCURVE",
"10 124 CURVE SMOOTH",
"134 124 LINE SMOOTH",
"135.105 124 OFFCURVE",
"136 124.895 OFFCURVE",
"136 126 CURVE SMOOTH",
"136 127.105 OFFCURVE",
"135.105 128 OFFCURVE",
"134 128 CURVE SMOOTH"
);
},
{
closed = 1;
nodes = (
"10 66 LINE SMOOTH",
"8.895 66 OFFCURVE",
"8 65.105 OFFCURVE",
"8 64 CURVE SMOOTH",
"8 62.895 OFFCURVE",
"8.895 62 OFFCURVE",
"10 62 CURVE SMOOTH",
"134 62 LINE SMOOTH",
"135.105 62 OFFCURVE",
"136 62.895 OFFCURVE",
"136 64 CURVE SMOOTH",
"136 65.105 OFFCURVE",
"135.105 66 OFFCURVE",
"134 66 CURVE SMOOTH"
);
},
{
closed = 1;
nodes = (
"10 4 LINE SMOOTH",
"8.895 4 OFFCURVE",
"8 3.105 OFFCURVE",
"8 2 CURVE SMOOTH",
"8 0.895 OFFCURVE",
"8.895 0 OFFCURVE",
"10 0 CURVE SMOOTH",
"134 0 LINE SMOOTH",
"135.105 0 OFFCURVE",
"136 0.895 OFFCURVE",
"136 2 CURVE SMOOTH",
"136 3.105 OFFCURVE",
"135.105 4 OFFCURVE",
"134 4 CURVE SMOOTH"
);
}
);
width = 144;
}
);
unicode = 2022;
},
{
glyphname = comma;
lastChange = "2013-12-02 20:35:06 +0000";
layers = (
{
layerId = "940E2F63-624A-4C3D-A909-721782B4CF41";
name = Regular;
paths = (
{
closed = 1;
nodes = (
"10 128 LINE SMOOTH",
"8.895 128 OFFCURVE",
"8 127.105 OFFCURVE",
"8 126 CURVE SMOOTH",
"8 2 LINE SMOOTH",
"8 0.895 OFFCURVE",
"8.895 0 OFFCURVE",
"10 0 CURVE SMOOTH",
"134 0 LINE SMOOTH",
"135.105 0 OFFCURVE",
"136 0.895 OFFCURVE",
"136 2 CURVE SMOOTH",
"136 126 LINE SMOOTH",
"136 127.105 OFFCURVE",
"135.105 128 OFFCURVE",
"134 128 CURVE SMOOTH"
);
}
);
width = 144;
}
);
unicode = 002C;
},
{
glyphname = ellipsis;
lastChange = "2013-12-02 20:35:45 +0000";
layers = (
{
layerId = "940E2F63-624A-4C3D-A909-721782B4CF41";
name = Regular;
paths = (
{
closed = 1;
nodes = (
"134 124 LINE SMOOTH",
"135.105 124 OFFCURVE",
"136 124.895 OFFCURVE",
"136 126 CURVE SMOOTH",
"136 127.105 OFFCURVE",
"135.105 128 OFFCURVE",
"134 128 CURVE SMOOTH",
"10 128 LINE SMOOTH",
"8.895 128 OFFCURVE",
"8 127.105 OFFCURVE",
"8 126 CURVE SMOOTH",
"8 124.895 OFFCURVE",
"8.895 124 OFFCURVE",
"10 124 CURVE SMOOTH"
);
},
{
closed = 1;
nodes = (
"10 66 LINE SMOOTH",
"8.895 66 OFFCURVE",
"8 65.105 OFFCURVE",
"8 64 CURVE SMOOTH",
"8 62.895 OFFCURVE",
"8.895 62 OFFCURVE",
"10 62 CURVE SMOOTH",
"134 62 LINE SMOOTH",
"135.105 62 OFFCURVE",
"136 62.895 OFFCURVE",
"136 64 CURVE SMOOTH",
"136 65.105 OFFCURVE",
"135.105 66 OFFCURVE",
"134 66 CURVE SMOOTH"
);
},
{
closed = 1;
nodes = (
"8.895 4 OFFCURVE",
"8 3.105 OFFCURVE",
"8 2 CURVE SMOOTH",
"8 0.895 OFFCURVE",
"8.895 0 OFFCURVE",
"10 0 CURVE SMOOTH",
"11.105 0 OFFCURVE",
"12 0.895 OFFCURVE",
"12 2 CURVE SMOOTH",
"12 3.105 OFFCURVE",
"11.105 4 OFFCURVE",
"10 4 CURVE SMOOTH"
);
},
{
closed = 1;
nodes = (
"132.895 4 OFFCURVE",
"132 3.105 OFFCURVE",
"132 2 CURVE SMOOTH",
"132 0.895 OFFCURVE",
"132.895 0 OFFCURVE",
"134 0 CURVE SMOOTH",
"135.105 0 OFFCURVE",
"136 0.895 OFFCURVE",
"136 2 CURVE SMOOTH",
"136 3.105 OFFCURVE",
"135.105 4 OFFCURVE",
"134 4 CURVE SMOOTH"
);
}
);
width = 144;
}
);
unicode = 2026;
},
{
glyphname = exclam;
lastChange = "2013-12-02 20:36:27 +0000";
layers = (
{
layerId = "940E2F63-624A-4C3D-A909-721782B4CF41";
name = Regular;
paths = (
{
closed = 1;
nodes = (
"8 64 LINE SMOOTH",
"8 62.895 OFFCURVE",
"8.895 62 OFFCURVE",
"10 62 CURVE SMOOTH",
"11.105 62 OFFCURVE",
"12 62.895 OFFCURVE",
"12 64 CURVE SMOOTH",
"12 126 LINE SMOOTH",
"12 127.105 OFFCURVE",
"11.105 128 OFFCURVE",
"10 128 CURVE SMOOTH",
"8.895 128 OFFCURVE",
"8 127.105 OFFCURVE",
"8 126 CURVE SMOOTH"
);
},
{
closed = 1;
nodes = (
"70 64 LINE SMOOTH",
"70 62.895 OFFCURVE",
"70.895 62 OFFCURVE",
"72 62 CURVE SMOOTH",
"73.105 62 OFFCURVE",
"74 62.895 OFFCURVE",
"74 64 CURVE SMOOTH",
"74 126 LINE SMOOTH",
"74 127.105 OFFCURVE",
"73.105 128 OFFCURVE",
"72 128 CURVE SMOOTH",
"70.895 128 OFFCURVE",
"70 127.105 OFFCURVE",
"70 126 CURVE SMOOTH"
);
},
{
closed = 1;
nodes = (
"132 64 LINE SMOOTH",
"132 62.895 OFFCURVE",
"132.895 62 OFFCURVE",
"134 62 CURVE SMOOTH",
"135.105 62 OFFCURVE",
"136 62.895 OFFCURVE",
"136 64 CURVE SMOOTH",
"136 126 LINE SMOOTH",
"136 127.105 OFFCURVE",
"135.105 128 OFFCURVE",
"134 128 CURVE SMOOTH",
"132.895 128 OFFCURVE",
"132 127.105 OFFCURVE",
"132 126 CURVE SMOOTH"
);
},
{
closed = 1;
nodes = (
"8.895 4 OFFCURVE",
"8 3.105 OFFCURVE",
"8 2 CURVE SMOOTH",
"8 0.895 OFFCURVE",
"8.895 0 OFFCURVE",
"10 0 CURVE SMOOTH",
"11.105 0 OFFCURVE",
"12 0.895 OFFCURVE",
"12 2 CURVE SMOOTH",
"12 3.105 OFFCURVE",
"11.105 4 OFFCURVE",
"10 4 CURVE SMOOTH"
);
},
{
closed = 1;
nodes = (
"70.895 4 OFFCURVE",
"70 3.105 OFFCURVE",
"70 2 CURVE SMOOTH",
"70 0.895 OFFCURVE",
"70.895 0 OFFCURVE",
"72 0 CURVE SMOOTH",
"73.105 0 OFFCURVE",
"74 0.895 OFFCURVE",
"74 2 CURVE SMOOTH",
"74 3.105 OFFCURVE",
"73.105 4 OFFCURVE",
"72 4 CURVE SMOOTH"
);
},
{
closed = 1;
nodes = (
"132.895 4 OFFCURVE",
"132 3.105 OFFCURVE",
"132 2 CURVE SMOOTH",
"132 0.895 OFFCURVE",
"132.895 0 OFFCURVE",
"134 0 CURVE SMOOTH",
"135.105 0 OFFCURVE",
"136 0.895 OFFCURVE",
"136 2 CURVE SMOOTH",
"136 3.105 OFFCURVE",
"135.105 4 OFFCURVE",
"134 4 CURVE SMOOTH"
);
}
);
width = 144;
}
);
unicode = 0021;
},
{
glyphname = numbersign;
lastChange = "2013-12-02 20:36:47 +0000";
layers = (
{
layerId = "940E2F63-624A-4C3D-A909-721782B4CF41";
name = Regular;
paths = (
{
closed = 1;
nodes = (
"12 124 LINE",
"70 124 LINE",
"70 66 LINE",
"12 66 LINE"
);
},
{
closed = 1;
nodes = (
"74 124 LINE",
"132 124 LINE",
"132 66 LINE",
"74 66 LINE"
);
},
{
closed = 1;
nodes = (
"12 62 LINE",
"70 62 LINE",
"70 4 LINE",
"12 4 LINE"
);
},
{
closed = 1;
nodes = (
"74 62 LINE",
"132 62 LINE",
"132 4 LINE",
"74 4 LINE"
);
},
{
closed = 1;
nodes = (
"10 128 LINE SMOOTH",
"8.895 128 OFFCURVE",
"8 127.105 OFFCURVE",
"8 126 CURVE SMOOTH",
"8 2 LINE SMOOTH",
"8 0.895 OFFCURVE",
"8.895 0 OFFCURVE",
"10 0 CURVE SMOOTH",
"134 0 LINE SMOOTH",
"135.105 0 OFFCURVE",
"136 0.895 OFFCURVE",
"136 2 CURVE SMOOTH",
"136 126 LINE SMOOTH",
"136 127.105 OFFCURVE",
"135.105 128 OFFCURVE",
"134 128 CURVE SMOOTH"
);
}
);
width = 144;
}
);
unicode = 0023;
},
{
glyphname = question;
lastChange = "2013-12-02 20:37:49 +0000";
layers = (
{
layerId = "940E2F63-624A-4C3D-A909-721782B4CF41";
name = Regular;
paths = (
{
closed = 1;
nodes = (
"10 128 LINE SMOOTH",
"8.895 128 OFFCURVE",
"8 127.105 OFFCURVE",
"8 126 CURVE SMOOTH",
"8 124.895 OFFCURVE",
"8.895 124 OFFCURVE",
"10 124 CURVE SMOOTH",
"132 124 LINE",
"132 66 LINE",
"72 66 LINE SMOOTH",
"70.895 66 OFFCURVE",
"70 65.105 OFFCURVE",
"70 64 CURVE SMOOTH",
"70 62.895 OFFCURVE",
"70.895 62 OFFCURVE",
"72 62 CURVE SMOOTH",
"134 62 LINE SMOOTH",
"135.105 62 OFFCURVE",
"136 62.895 OFFCURVE",
"136 64 CURVE SMOOTH",
"136 126 LINE SMOOTH",
"136 127.105 OFFCURVE",
"135.105 128 OFFCURVE",
"134 128 CURVE SMOOTH"
);
},
{
closed = 1;
nodes = (
"70.895 4 OFFCURVE",
"70 3.105 OFFCURVE",
"70 2 CURVE SMOOTH",
"70 0.895 OFFCURVE",
"70.895 0 OFFCURVE",
"72 0 CURVE SMOOTH",
"73.105 0 OFFCURVE",
"74 0.895 OFFCURVE",
"74 2 CURVE SMOOTH",
"74 3.105 OFFCURVE",
"73.105 4 OFFCURVE",
"72 4 CURVE SMOOTH"
);
}
);
width = 144;
}
);
unicode = 003F;
},
{
glyphname = braceleft;
lastChange = "2013-12-02 20:38:41 +0000";
layers = (
{
layerId = "940E2F63-624A-4C3D-A909-721782B4CF41";
name = Regular;
paths = (
{
closed = 1;
nodes = (
"74 4 LINE",
"74 124 LINE",
"134 124 LINE SMOOTH",
"135.105 124 OFFCURVE",
"136 124.895 OFFCURVE",
"136 126 CURVE SMOOTH",
"136 127.105 OFFCURVE",
"135.105 128 OFFCURVE",
"134 128 CURVE SMOOTH",
"72 128 LINE SMOOTH",
"70.895 128 OFFCURVE",
"70 127.105 OFFCURVE",
"70 126 CURVE SMOOTH",
"70 66 LINE",
"10 66 LINE SMOOTH",
"8.895 66 OFFCURVE",
"8 65.105 OFFCURVE",
"8 64 CURVE SMOOTH",
"8 62.895 OFFCURVE",
"8.895 62 OFFCURVE",
"10 62 CURVE SMOOTH",
"70 62 LINE",
"70 2 LINE SMOOTH",
"70 0.895 OFFCURVE",
"70.895 0 OFFCURVE",
"72 0 CURVE SMOOTH",
"134 0 LINE SMOOTH",
"135.105 0 OFFCURVE",
"136 0.895 OFFCURVE",
"136 2 CURVE SMOOTH",
"136 3.105 OFFCURVE",
"135.105 4 OFFCURVE",
"134 4 CURVE SMOOTH"
);
}
);
width = 144;
}
);
unicode = 007B;
},
{
color = 0;
glyphname = dollar;
lastChange = "2013-12-02 18:57:25 +0000";
layers = (
{
components = (
{
name = s;
transform = "{1, 0, 0, 1, 0, 0}";
}
);
layerId = "940E2F63-624A-4C3D-A909-721782B4CF41";
name = Regular;
paths = (
{
closed = 1;
nodes = (
"70 2 LINE",
"74 2 LINE",
"74 128 LINE",
"70 128 LINE"
);
}
);
width = 144;
}
);
unicode = 0024;
},
{
color = 0;
glyphname = euro;
lastChange = "2013-12-02 20:39:17 +0000";
layers = (
{
components = (
{
name = braceleft;
transform = "{1, 0, 0, 1, 0, 0}";
}
);
layerId = "940E2F63-624A-4C3D-A909-721782B4CF41";
name = Regular;
paths = (
{
closed = 1;
nodes = (
"54 66 LINE",
"54 62 LINE",
"134 62 LINE SMOOTH",
"135.105 62 OFFCURVE",
"136 62.895 OFFCURVE",
"136 64 CURVE SMOOTH",
"136 65.105 OFFCURVE",
"135.105 66 OFFCURVE",
"134 66 CURVE SMOOTH"
);
}
);
width = 144;
}
);
unicode = 20AC;
},
{
glyphname = divide;
lastChange = "2013-12-02 20:40:16 +0000";
layers = (
{
layerId = "940E2F63-624A-4C3D-A909-721782B4CF41";
name = Regular;
paths = (
{
closed = 1;
nodes = (
"10 66 LINE SMOOTH",
"8.895 66 OFFCURVE",
"8 65.105 OFFCURVE",
"8 64 CURVE SMOOTH",
"8 62.895 OFFCURVE",
"8.895 62 OFFCURVE",
"10 62 CURVE SMOOTH",
"134 62 LINE SMOOTH",
"135.105 62 OFFCURVE",
"136 62.895 OFFCURVE",
"136 64 CURVE SMOOTH",
"136 65.105 OFFCURVE",
"135.105 66 OFFCURVE",
"134 66 CURVE SMOOTH"
);
},
{
closed = 1;
nodes = (
"73.1046 124 OFFCURVE",
"74 124.895 OFFCURVE",
"74 126 CURVE SMOOTH",
"74 127.105 OFFCURVE",
"73.1046 128 OFFCURVE",
"72 128 CURVE SMOOTH",
"70.8954 128 OFFCURVE",
"70 127.105 OFFCURVE",
"70 126 CURVE SMOOTH",
"70 124.895 OFFCURVE",
"70.8954 124 OFFCURVE",
"72 124 CURVE SMOOTH"
);
},
{
closed = 1;
nodes = (
"73.1046 0 OFFCURVE",
"74 0.89542 OFFCURVE",
"74 2 CURVE SMOOTH",
"74 3.10458 OFFCURVE",
"73.1046 4 OFFCURVE",
"72 4 CURVE SMOOTH",
"70.8954 4 OFFCURVE",
"70 3.10458 OFFCURVE",
"70 2 CURVE SMOOTH",
"70 0.89542 OFFCURVE",
"70.8954 0 OFFCURVE",
"72 0 CURVE SMOOTH"
);
}
);
width = 144;
}
);
unicode = 00F7;
},
{
color = 0;
glyphname = percent;
lastChange = "2013-12-02 20:41:37 +0000";
layers = (
{
layerId = "940E2F63-624A-4C3D-A909-721782B4CF41";
name = Regular;
paths = (
{
closed = 1;
nodes = (
"132 66 LINE",
"10 66 LINE SMOOTH",
"8.895 66 OFFCURVE",
"8 65.105 OFFCURVE",
"8 64 CURVE SMOOTH",
"8 2 LINE SMOOTH",
"8 0.895 OFFCURVE",
"8.895 0 OFFCURVE",
"10 0 CURVE SMOOTH",
"11.105 0 OFFCURVE",
"12 0.895 OFFCURVE",
"12 2 CURVE SMOOTH",
"12 62 LINE",
"134 62 LINE SMOOTH",
"135.105 62 OFFCURVE",
"136 62.895 OFFCURVE",
"136 64 CURVE SMOOTH",
"136 126 LINE SMOOTH",
"136 127.105 OFFCURVE",
"135.105 128 OFFCURVE",
"134 128 CURVE SMOOTH",
"132.895 128 OFFCURVE",
"132 127.105 OFFCURVE",
"132 126 CURVE SMOOTH"
);
},
{
closed = 1;
nodes = (
"72 124 LINE SMOOTH",
"73.105 124 OFFCURVE",
"74 124.895 OFFCURVE",
"74 126 CURVE SMOOTH",
"74 127.105 OFFCURVE",
"73.105 128 OFFCURVE",
"72 128 CURVE SMOOTH",
"10 128 LINE SMOOTH",
"8.895 128 OFFCURVE",
"8 127.105 OFFCURVE",
"8 126 CURVE SMOOTH",
"8 124.895 OFFCURVE",
"8.895 124 OFFCURVE",
"10 124 CURVE SMOOTH"
);
},
{
closed = 1;
nodes = (
"72 4 LINE SMOOTH",
"70.895 4 OFFCURVE",
"70 3.105 OFFCURVE",
"70 2 CURVE SMOOTH",
"70 0.895 OFFCURVE",
"70.895 0 OFFCURVE",
"72 0 CURVE SMOOTH",
"134 0 LINE SMOOTH",
"135.105 0 OFFCURVE",
"136 0.895 OFFCURVE",
"136 2 CURVE SMOOTH",
"136 3.105 OFFCURVE",
"135.105 4 OFFCURVE",
"134 4 CURVE SMOOTH"
);
}
);
width = 144;
}
);
unicode = 0025;
},
{
glyphname = plus;
lastChange = "2013-12-02 20:41:55 +0000";
layers = (
{
layerId = "940E2F63-624A-4C3D-A909-721782B4CF41";
name = Regular;
paths = (
{
closed = 1;
nodes = (
"74 66 LINE",
"74 126 LINE SMOOTH",
"74 127.105 OFFCURVE",
"73.105 128 OFFCURVE",
"72 128 CURVE SMOOTH",
"70.895 128 OFFCURVE",
"70 127.105 OFFCURVE",
"70 126 CURVE SMOOTH",
"70 66 LINE",
"10 66 LINE SMOOTH",
"8.895 66 OFFCURVE",
"8 65.105 OFFCURVE",
"8 64 CURVE SMOOTH",
"8 62.895 OFFCURVE",
"8.895 62 OFFCURVE",
"10 62 CURVE SMOOTH",
"70 62 LINE",
"70 2 LINE SMOOTH",
"70 0.895 OFFCURVE",
"70.895 0 OFFCURVE",
"72 0 CURVE SMOOTH",
"73.105 0 OFFCURVE",
"74 0.895 OFFCURVE",
"74 2 CURVE SMOOTH",
"74 62 LINE",
"134 62 LINE SMOOTH",
"135.105 62 OFFCURVE",
"136 62.895 OFFCURVE",
"136 64 CURVE SMOOTH",
"136 65.105 OFFCURVE",
"135.105 66 OFFCURVE",
"134 66 CURVE SMOOTH"
);
}
);
width = 144;
}
);
unicode = 002B;
},
{
glyphname = ampersand;
lastChange = "2013-12-02 20:43:57 +0000";
layers = (
{
layerId = "940E2F63-624A-4C3D-A909-721782B4CF41";
name = Regular;
paths = (
{
closed = 1;
nodes = (
"134 62 LINE SMOOTH",
"135.105 62 OFFCURVE",
"136 62.895 OFFCURVE",
"136 64 CURVE SMOOTH",
"136 126 LINE SMOOTH",
"136 127.105 OFFCURVE",
"135.105 128 OFFCURVE",
"134 128 CURVE SMOOTH",
"72 128 LINE SMOOTH",
"70.895 128 OFFCURVE",
"70 127.105 OFFCURVE",
"70 126 CURVE SMOOTH",
"70 66 LINE",
"10 66 LINE SMOOTH",
"8.895 66 OFFCURVE",
"8 65.105 OFFCURVE",
"8 64 CURVE SMOOTH",
"8 2 LINE SMOOTH",
"8 0.895 OFFCURVE",
"8.895 0 OFFCURVE",
"10 0 CURVE SMOOTH",
"134 0 LINE SMOOTH",
"135.105 0 OFFCURVE",
"136 0.895 OFFCURVE",
"136 2 CURVE SMOOTH",
"136 3.105 OFFCURVE",
"135.105 4 OFFCURVE",
"134 4 CURVE SMOOTH",
"12 4 LINE",
"12 62 LINE"
);
},
{
closed = 1;
nodes = (
"132 66 LINE",
"74 66 LINE",
"74 124 LINE",
"132 124 LINE"
);
}
);
width = 144;
}
);
unicode = 0026;
},
{
glyphname = degree;
lastChange = "2013-12-02 20:45:37 +0000";
layers = (
{
layerId = "940E2F63-624A-4C3D-A909-721782B4CF41";
name = Regular;
paths = (
{
closed = 1;
nodes = (
"74 126 LINE SMOOTH",
"74 127.105 OFFCURVE",
"73.105 128 OFFCURVE",
"72 128 CURVE SMOOTH",
"10 128 LINE SMOOTH",
"8.895 128 OFFCURVE",
"8 127.105 OFFCURVE",
"8 126 CURVE SMOOTH",
"8 64 LINE SMOOTH",
"8 62.895 OFFCURVE",
"8.895 62 OFFCURVE",
"10 62 CURVE SMOOTH",
"72 62 LINE SMOOTH",
"73.105 62 OFFCURVE",
"74 62.895 OFFCURVE",
"74 64 CURVE SMOOTH"
);
},
{
closed = 1;
nodes = (
"12 124 LINE",
"70 124 LINE",
"70 66 LINE",
"12 66 LINE"
);
},
{
closed = 1;
nodes = (
"132 4 LINE",
"72 4 LINE SMOOTH",
"70.895 4 OFFCURVE",
"70 3.105 OFFCURVE",
"70 2 CURVE SMOOTH",
"70 0.895 OFFCURVE",
"70.895 0 OFFCURVE",
"72 0 CURVE SMOOTH",
"134 0 LINE SMOOTH",
"135.105 0 OFFCURVE",
"136 0.895 OFFCURVE",
"136 2 CURVE SMOOTH",
"136 64 LINE SMOOTH",
"136 65.105 OFFCURVE",
"135.105 66 OFFCURVE",
"134 66 CURVE SMOOTH",
"132.895 66 OFFCURVE",
"132 65.105 OFFCURVE",
"132 64 CURVE SMOOTH"
);
}
);
width = 144;
}
);
unicode = 00B0;
},
